HIERARCHY
ROOT Hips
{
	OFFSET 0.000000 0.000000 0.000000 
	CHANNELS 6 Xposition Yposition Zposition Yrotation Zrotation Xrotation 
	JOINT Lumbar
	{
		OFFSET 0.000000 0.000000 0.000000 
		CHANNELS 3 Zrotation Xrotation Yrotation
		JOINT Neck
		{
			OFFSET 0.000000 0.445665 0.000000 
			CHANNELS 3 Zrotation Xrotation Yrotation
			End Site
			{
				OFFSET 0.000000 0.227535 0.000000 
			}
		}
		JOINT RightShoulder
		{
			OFFSET 0.019635 0.377685 0.194865 
			CHANNELS 3 Zrotation Xrotation Yrotation
			JOINT RightElbow
			{
				OFFSET 0.000000 -0.243375 0.000000 
				CHANNELS 2 Zrotation Yrotation
				JOINT RightWrist
				{
					OFFSET 0.000000 -0.264825 0.000000 
					CHANNELS 2 Zrotation Xrotation
					End Site
					{
						OFFSET 0.006600 -0.176220 0.000990 
					}
				}
			}
		}
		JOINT LeftShoulder
		{
			OFFSET 0.019635 0.377685 -0.194865 
			CHANNELS 3 Zrotation Xrotation Yrotation
			JOINT LeftElbow
			{
				OFFSET 0.000000 -0.243375 0.000000 
				CHANNELS 2 Zrotation Yrotation
				JOINT LeftWrist
				{
					OFFSET 0.000000 -0.264825 0.000000 
					CHANNELS 2 Zrotation Xrotation
					End Site
					{
						OFFSET 0.006600 -0.176220 -0.000990 
					}
				}
			}
		}
	}
	JOINT RightHip
	{
		OFFSET 0.052140 -0.069960 0.075570 
		CHANNELS 3 Zrotation Xrotation Yrotation
		JOINT RightKnee
		{
			OFFSET 0.000000 -0.402270 0.000000 
			CHANNELS 1 Zrotation
			JOINT RightAnkle
			{
				OFFSET 0.000000 -0.404085 0.000000 
				CHANNELS 3 Zrotation Xrotation Yrotation
				End Site
				{
					OFFSET 0.204105 -0.089430 0.008415 
				}
			}
		}
	}
	JOINT LeftHip
	{
		OFFSET 0.052140 -0.069960 -0.075570 
		CHANNELS 3 Zrotation Xrotation Yrotation
		JOINT LeftKnee
		{
			OFFSET 0.000000 -0.402270 0.000000 
			CHANNELS 1 Zrotation
			JOINT LeftAnkle
			{
				OFFSET 0.000000 -0.404085 0.000000 
				CHANNELS 3 Zrotation Xrotation Yrotation
				End Site
				{
					OFFSET 0.204105 -0.089430 -0.008415 
				}
			}
		}
	}
}
MOTION
Frames: 17
Frame Time: 0.02
0.00217 0.03357 0.28417 40.59992 -27.99873 -7.82028 42.69994 4.54152 9.63439 11.46314 -0.16383 -0.81953 88.05906 8.24341 55.62241 69.56737 84.13294 13.37784 -3.07051 122.04149 35.70578 89.97238 5.76564 -82.67947 -10.62127 4.06346 44.16091 1.00127 -9.50412 -16.87642 -7.58507 -4.1765 -2.88887 42.87406 4.50734 2.59784 -23.02647 -7.00717 2.70182 2.05611
0.00163 0.03343 0.28419 40.42578 -27.97849 -7.81063 42.76163 4.56198 9.25622 11.41883 -0.15647 -0.81956 86.88775 8.7165 56.88047 69.12091 83.88893 11.27045 -3.74292 121.97563 36.22362 90.01712 5.72731 -82.64489 -10.79093 4.06114 44.19808 0.94626 -9.70343 -16.88501 -7.56162 -4.12341 -2.85802 42.88528 4.55676 3.00846 -23.04941 -7.00309 2.67275 2.0419
0.00118 0.03332 0.28424 40.21526 -27.96471 -7.80169 42.82531 4.57867 8.86114 11.40675 -0.1818 -0.81958 85.79405 9.47654 58.95438 68.14919 83.4897 7.83333 -4.69508 121.92486 36.78616 90.00311 5.67474 -82.55004 -10.98626 4.04369 44.24487 0.88681 -9.97594 -16.89588 -7.53152 -4.05636 -2.81944 42.89907 4.64503 3.58086 -23.07288 -6.99841 2.62792 2.01914
0.00069 0.03319 0.28428 40.01803 -27.94798 -7.79237 42.8872 4.59422 8.4683 11.37842 -0.18657 -0.81961 84.5706 10.05174 60.56184 67.48371 83.17329 5.14167 -5.47314 121.87246 37.33774 90.00142 5.63154 -82.48058 -11.17132 4.03158 44.28811 0.83173 -10.19992 -16.90558 -7.50521 -3.99693 -2.78513 42.91202 4.71082 4.05674 -23.09623 -6.99411 2.59373 2.00221
0.00019 0.03307 0.28431 39.83651 -27.93192 -7.78321 42.95271 4.62196 8.09644 11.36019 -0.22097 -0.81963 83.71815 10.85825 62.56094 66.55557 82.80252 1.87663 -6.44378 121.79158 37.84745 90.0065 5.58459 -82.39322 -11.3559 4.0176 44.32845 0.76613 -10.48861 -16.91598 -7.47571 -3.93226 -2.74769 42.92457 4.79546 4.62374 -23.11916 -6.98939 2.54526 1.97737
-0.00026 0.03294 0.28437 39.61218 -27.91595 -7.77399 43.01114 4.62332 7.67708 11.32698 -0.19857 -0.81966 82.1235 11.24488 63.9417 66.03822 82.50857 -0.5239 -7.084 121.77686 38.45702 90.00319 5.53912 -82.34111 -11.54569 4.00799 44.37716 0.72168 -10.66048 -16.92541 -7.45122 -3.87498 -2.71482 42.93835 4.851 5.04281 -23.14306 -6.98543 2.52261 1.96684
-0.00062 0.03279 0.28449 39.28665 -27.89652 -7.7633 43.05033 4.55307 7.13745 11.24846 -0.02015 -0.81969 78.44351 10.47119 63.42651 66.81966 82.47082 -0.14685 -6.71789 121.93169 39.31778 90.00436 5.49741 -82.37473 -11.74107 4.00358 44.44365 0.73573 -10.48455 -16.93162 -7.44264 -3.84326 -2.69754 42.95318 4.81282 5.00102 -23.16954 -6.98328 2.57531 1.99793
-0.00095 0.03263 0.28465 38.91748 -27.87736 -7.7527 43.08221 4.45635 6.54958 11.15261 0.21882 -0.81972 74.0216 9.25263 62.25934 68.02283 82.51499 1.1311 -6.015 122.15522 40.28034 90.00448 5.4572 -82.45445 -11.94037 4.00707 44.5188 0.77139 -10.19048 -16.93675 -7.43923 -3.81902 -2.68487 42.96943 4.74508 4.80878 -23.19698 -6.98198 2.65435 2.04361
-0.00128 0.03247 0.2848 38.56297 -27.8592 -7.74281 43.11693 4.37147 5.97994 11.06167 0.4366 -0.81975 69.95314 8.19326 61.38707 69.00715 82.51812 1.95227 -5.48331 122.35419 41.20522 90.00427 5.41741 -82.5335 -12.13888 4.01502 44.59168 0.79801 -9.95422 -16.94232 -7.43313 -3.79037 -2.66949 42.98589 4.69334 4.69322 -23.22395 -6.98061 2.72125 2.0826
-0.00163 0.03232 0.28493 38.22959 -27.83603 -7.72984 43.15372 4.28711 5.42587 10.98437 0.62669 -0.81978 65.81484 7.32609 60.55465 70.08994 82.53203 2.92947 -4.88406 122.52516 42.09483 90.00446 5.37232 -82.52353 -12.33466 3.98854 44.65736 0.82155 -9.70017 -16.94818 -7.42824 -3.76597 -2.6567 42.99844 4.63136 4.54417 -23.25103 -6.97796 2.78868 2.12175
-0.00195 0.03216 0.2851 37.84162 -27.82389 -7.7232 43.18447 4.19563 4.82736 10.8742 0.88894 -0.81981 61.64909 5.94824 59.46664 71.0725 82.54479 3.81014 -4.34273 122.77096 43.0822 90.00447 5.33917 -82.71186 -12.5361 4.03558 44.74061 0.8562 -9.45789 -16.95319 -7.42214 -3.7341 -2.63938 43.01994 4.58413 4.43203 -23.27817 -6.97809 2.86104 2.16386
-0.00223 0.03197 0.28533 37.31953 -27.83693 -7.73496 43.20017 4.08926 4.12481 10.67647 1.33894 -0.81983 57.55532 3.2757 57.88958 71.69383 82.53683 4.23365 -4.03525 123.20201 44.30839 90.00506 5.3346 -83.4262 -12.75646 4.28559 44.86464 0.92096 -9.24325 -16.95585 -7.41172 -3.68506 -2.61128 43.0615 4.5761 4.41298 -23.30487 -6.98668 2.94436 2.21326
-0.0025 0.03177 0.2856 36.74304 -27.86199 -7.75285 43.21009 3.97703 3.37812 10.44635 1.85887 -0.81986 53.46665 0.10197 56.06287 72.19835 82.52522 4.53029 -3.7978 123.70566 45.63024 90.00415 5.34257 -84.3389 -12.98102 4.60838 45.00704 0.99544 -9.04945 -16.95775 -7.39992 -3.62747 -2.57802 43.11281 4.58501 4.44229 -23.33168 -6.99791 3.03129 2.26479
-0.00278 0.03158 0.28585 36.18783 -27.88495 -7.76737 43.22275 3.8686 2.64704 10.23146 2.34505 -0.81989 49.39608 -2.84814 54.30904 72.74732 82.51444 4.87176 -3.5325 124.18047 46.91236 90.00599 5.34776 -85.17037 -13.20123 4.89752 45.14469 1.06222 -8.8692 -16.96017 -7.38861 -3.57025 -2.54519 43.16243 4.5922 4.48074 -23.35866 -7.00721 3.11389 2.31347
-0.00303 0.03139 0.28609 35.64581 -27.89378 -7.78459 43.23464 3.7543 1.93255 10.01353 2.84236 -0.81992 45.20888 -5.79633 52.70494 73.3492 82.50989 5.2968 -3.23904 124.64484 48.18292 90.00583 5.34158 -85.97371 -13.4336 5.19208 45.2675 1.14306 -8.59187 -16.9618 -7.37798 -3.52762 -2.52032 43.20047 4.57472 4.38965 -23.38471 -7.01938 3.20796 2.37012
-0.00333 0.03118 0.28636 35.06369 -27.93479 -7.79736 43.24693 3.65134 1.1743 9.79486 3.3314 -0.81995 41.28122 -8.86147 50.73729 73.80512 82.49048 5.50753 -3.02494 125.14139 49.49812 90.00091 5.36092 -86.87222 -13.63944 5.48911 45.42541 1.19735 -8.51797 -16.96491 -7.36564 -3.45312 -2.47796 43.26499 4.61108 4.57305 -23.41279 -7.02651 3.27966 2.41111
-0.00374 0.03095 0.28673 34.38716 -28.06266 -7.79858 43.26129 3.57984 0.30059 9.57858 3.78762 -0.81997 38.02341 -12.128 47.83788 73.90848 82.43047 5.1429 -3.01675 125.75517 50.92023 90.01668 5.45773 -88.07902 -13.78253 5.80241 45.67607 1.16958 -9.04667 -16.97222 -7.34796 -3.28689 -2.38521 43.3997 4.80877 5.57884 -23.44559 -7.01617 3.27989 2.40295
